<svg xmlns="http://www.w3.org/2000/svg" xmlns:xlink="http://www.w3.org/1999/xlink" version="1.1" x="0px" y="0px" viewBox="0 0 100 125" enable-background="new 0 0 100 100" xml:space="preserve"><path d="M57.9,84.3c-1.3-0.6-2.8,0-3.4,1.3l-2.1,4.8c-0.6,1.3,0,2.9,1.3,3.5c0.3,0.2,0.7,0.2,1.1,0.2c1,0,1.9-0.6,2.3-1.5l2.1-4.8  C59.8,86.5,59.2,84.9,57.9,84.3z"/><path d="M40.3,77.9c-1.3-0.6-2.8,0-3.4,1.3L34.8,84c-0.6,1.3,0,2.9,1.3,3.5c0.3,0.2,0.7,0.2,1.1,0.2c1,0,1.9-0.6,2.4-1.6l2.1-4.8  C42.2,80,41.6,78.5,40.3,77.9z"/><path d="M62.6,16.3h0.5c1,0,1.9-0.8,1.9-1.9V7.6c0-1-0.8-1.9-1.9-1.9h-0.5c-1,0-1.9,0.8-1.9,1.9v6.8C60.8,15.4,61.6,16.3,62.6,16.3z  "/><path d="M73.8,20.9c0.7,0.7,1.9,0.7,2.6,0l4.8-4.8c0.7-0.7,0.7-1.9,0-2.6l-0.3-0.3c-0.7-0.7-1.9-0.7-2.6,0L73.5,18  c-0.7,0.7-0.7,1.9,0,2.6L73.8,20.9z"/><path d="M86.7,29.4H80c-1,0-1.9,0.8-1.9,1.9v0.5c0,1,0.8,1.9,1.9,1.9h6.8c1,0,1.9-0.8,1.9-1.9v-0.5C88.6,30.3,87.8,29.4,86.7,29.4z"/><path d="M49.3,20.9c0.7,0.7,1.9,0.7,2.6,0l0.3-0.3c0.7-0.7,0.7-1.9,0-2.6l-4.8-4.8c-0.7-0.7-1.9-0.7-2.6,0l-0.3,0.3  c-0.7,0.7-0.7,1.9,0,2.6L49.3,20.9z"/><path d="M71.4,39.6c-0.4,0-0.8,0-1.1,0.1c2.2-2,3.7-4.9,3.7-8.2c0-6.1-4.9-11-11-11c-5.1,0-9.5,3.5-10.7,8.3c-0.1,0-0.1,0-0.2,0  c-3.9-3.4-8-5-12.8-5C29,23.8,20.7,31.4,19,42c-4.5,2.9-7.4,7.7-7.4,12.4c0,8.1,6.6,14.8,14.7,14.8h23.6l-1.1,2.4  c-0.6,1.3,0,2.9,1.3,3.5c0.4,0.2,0.7,0.2,1.1,0.2c1,0,1.9-0.6,2.3-1.5l2.1-4.7h16C80,69.1,87,62.3,87,54.3  C86.8,46.4,79.8,39.6,71.4,39.6z M16.6,54.4c0-3.1,2.4-6.6,5.8-8.4l1.3-0.7l0.1-1.4C24.7,35.3,31.2,29,39.2,29  c1.1,0,2.1,0.1,3.1,0.3c1.9,0.4,3.6,1.2,5.3,2.5c0.6,0.5,1.3,1,1.9,1.6l1,1l1.3-0.3c0.1,0,0.2,0,0.3-0.1c0.8-0.1,2-0.2,2.8-0.2  c4.9,0,9,3.6,10,8.5c0,0.3,0.1,0.5,0.2,0.8l0.4,3l2.9-0.8c1-0.3,2.1-0.4,3.1-0.4c0.8,0,1.5,0.1,2.2,0.3c2.9,0.7,5.4,2.5,6.8,5  c0.7,1.3,1.2,2.7,1.2,4.2c0,5-4.8,9.4-10.2,9.4H26.1C20.2,63.9,16.6,59,16.6,54.4z"/><text x="0" y="115" fill="#000000" font-size="5px" font-weight="bold" font-family="'Helvetica Neue', Helvetica, Arial-Unicode, Arial, Sans-serif">Created by kiddo</text><text x="0" y="120" fill="#000000" font-size="5px" font-weight="bold" font-family="'Helvetica Neue', Helvetica, Arial-Unicode, Arial, Sans-serif">from the Noun Project</text></svg>